PathFileType	4	(X/Y/Z)	/Users/niels/Desktop/University/Third Semester/Perception and Action/Exam/Gymnastics Motion Tracking/Code for Gym Tracking/Scripts/Analyzed Data/Start Salto/st_salto_bad_id9_3_Sports2D/st_salto_bad_id9_3_Sports2D_px_person00.trc
DataRate	CameraRate	NumFrames	NumMarkers	Units	OrigDataRate	OrigDataStartFrame	OrigNumFrames
29.825581395348838	29.825581395348838	9	22	m	29.825581395348838	64	172
Frame#	Time	Hip			RHip			RKnee			RAnkle			RBigToe			RSmallToe			RHeel			LHip			LKnee			LAnkle			LBigToe			LSmallToe			LHeel			Neck			Head			Nose			RShoulder			RElbow			RWrist			LShoulder			LElbow			LWrist		
		X1	Y1	Z1	X2	Y2	Z2	X3	Y3	Z3	X4	Y4	Z4	X5	Y5	Z5	X6	Y6	Z6	X7	Y7	Z7	X8	Y8	Z8	X9	Y9	Z9	X10	Y10	Z10	X11	Y11	Z11	X12	Y12	Z12	X13	Y13	Z13	X14	Y14	Z14	X15	Y15	Z15	X16	Y16	Z16	X17	Y17	Z17	X18	Y18	Z18	X19	Y19	Z19	X20	Y20	Z20	X21	Y21	Z21	X22	Y22	Z22
64	2.1458089668615985	0.8308973299560978	-0.1795541941763554	0.0	0.8340968714225017	-0.191948541215792	0.0	0.8049517027009997	-0.3497394641801444	0.0	0.6610767328986087	-0.284994918283016	0.0	0.6113716248236382	-0.3340429164163503	0.0	0.608838239912187	-0.32054953993345187	0.0	0.6469215954808899	-0.2676361420362535	0.0	0.8227741056105213	-0.18244400521826126	0.0	0.8043563078963453	-0.34468979429287755	0.0	0.669565517983991	-0.28448937524831436	0.0	0.6199889254762956	-0.3261324201035807	0.0	0.6220933579339718	-0.32621460040817335	0.0	0.6588547007830026	-0.2570355993705848	0.0	0.9881206799343234	-0.2902366663966014	0.0	1.0283796248542767	-0.3725486754765397	0.0	0.9804039182454443	-0.34472578916547236	0.0	0.9916931912456366	-0.26627390028541065	0.0	0.9008020415932111	-0.24379408851965761	0.0	0.8035060794745452	-0.276062124577276	0.0	0.9835470041909602	-0.28769779959032576	0.0	0.8913536446420226	-0.25696134688398736	0.0	0.8082140640906694	-0.28285540021515854	0.0
65	2.179337231968811	0.844816764160766	-0.17300419951194557	0.0	0.846316623952396	-0.18559948412656768	0.0	0.8095224755148706	-0.3408948281637983	0.0	0.6730894092109463	-0.2653813132694158	0.0	0.6205037433742413	-0.31260424037021606	0.0	0.6192588243074277	-0.2986478608775345	0.0	0.6594756861096104	-0.24732871098150178	0.0	0.836166228032759	-0.17577608002634834	0.0	0.8094453888694063	-0.33540384669642404	0.0	0.6819544354400588	-0.2667604500302788	0.0	0.6285356695005727	-0.3057556187350903	0.0	0.6307551179859128	-0.3059312827818835	0.0	0.6767083305839693	-0.237589181101044	0.0	0.9914459444811585	-0.29468825121058456	0.0	1.0259810951023203	-0.3817076771082055	0.0	0.9803305017602892	-0.34911299635844856	0.0	0.9948291949679345	-0.2734280498205456	0.0	0.903944753915301	-0.23945761914680325	0.0	0.8048492615566845	-0.26180478218401765	0.0	0.9908152740750359	-0.28935677835025125	0.0	0.8973819012645426	-0.24961459097581895	0.0	0.8096886502318834	-0.2690948171056235	0.0
66	2.2128654970760233	0.858796894380307	-0.1671508220754698	0.0	0.858977196264321	-0.1793607662647068	0.0	0.8142175518775625	-0.3316933401775251	0.0	0.6857287035883892	-0.2463196619036808	0.0	0.6300931660307145	-0.291765666896759	0.0	0.6300953802996736	-0.27709143272491804	0.0	0.6722638496807776	-0.22794594692949918	0.0	0.8501099197978259	-0.1704212611161342	0.0	0.8141329887181292	-0.32692120896409843	0.0	0.6942123437715889	-0.250323488116129	0.0	0.6372988172687316	-0.28583425296954523	0.0	0.6393945355245114	-0.2862186776308844	0.0	0.6931665433107586	-0.220268294778608	0.0	0.9940980476182256	-0.29883360358720196	0.0	1.0231683561850367	-0.3895769607799259	0.0	0.9798575788697019	-0.3532811345649406	0.0	0.9975792674680752	-0.27915220544197783	0.0	0.90782111362293	-0.2350416396465737	0.0	0.8082989621202008	-0.24781820517168907	0.0	0.9969797307290152	-0.2912840991965466	0.0	0.9033858130706602	-0.24346850599229283	0.0	0.8121962910819056	-0.25578561592259674	0.0
67	2.246393762183236	0.8725362764517393	-0.16221246256279376	0.0	0.8718988130873214	-0.17326090997832708	0.0	0.8190543884015957	-0.32237979467883304	0.0	0.6987771629439683	-0.2282066748840684	0.0	0.6400014525455637	-0.2712792104798707	0.0	0.6412384859697177	-0.2560103121293542	0.0	0.6857777023227472	-0.2099928367967399	0.0	0.8644029927485992	-0.1669734161568197	0.0	0.8187232938246713	-0.31933327573018805	0.0	0.706173089533441	-0.23516819636854458	0.0	0.6458801409195917	-0.26638555193937796	0.0	0.6476834407830362	-0.2673212476200993	0.0	0.7077984146302022	-0.20470616209851702	0.0	0.9962863787623609	-0.30270076234609194	0.0	1.020085804622346	-0.39554365901482336	0.0	0.9788268429808871	-0.35718605304159534	0.0	1.0004250672460722	-0.2829018967422193	0.0	0.9126201388325609	-0.23041542486628147	0.0	0.8135862025451417	-0.2343887966013782	0.0	1.0014883902320597	-0.2940714740430017	0.0	0.9093434335190491	-0.2389590457053054	0.0	0.8159350212399056	-0.2434426953829907	0.0
68	2.2799220272904486	0.8860662846536914	-0.15815097983600646	0.0	0.8850144417712457	-0.167284633453314	0.0	0.8240453859845627	-0.3130721198304773	0.0	0.7120771148181081	-0.21100022134095311	0.0	0.6502374299540666	-0.250660248966468	0.0	0.6527459772702381	-0.23525667498842362	0.0	0.7003812344641768	-0.19321686884286318	0.0	0.8788315948729678	-0.165601257411118	0.0	0.8235797664600799	-0.31216613207517396	0.0	0.7181671767066232	-0.2208393132741297	0.0	0.6542503649164139	-0.2471370154457627	0.0	0.6557637011388879	-0.2491208858721433	0.0	0.7214646720744466	-0.18967424915054493	0.0	0.9982481136047207	-0.3062466318234684	0.0	1.016529952063628	-0.3994584960480428	0.0	0.9770451111347493	-0.36062381068060195	0.0	1.0036254464305279	-0.2846631784181964	0.0	0.9183145625306413	-0.22549943470608497	0.0	0.820487146709068	-0.2216921904869027	0.0	1.0041461131824032	-0.2973323258626325	0.0	0.9153209826402042	-0.23591292232964448	0.0	0.8210361938708453	-0.23218030474949383	0.0
69	2.3134502923976608	0.8996411068623169	-0.1547410841053274	0.0	0.8984114517782239	-0.16148226276172623	0.0	0.8292840501605023	-0.3037385145465676	0.0	0.7255165869266433	-0.1941954163896993	0.0	0.6609438212600967	-0.22969497567002164	0.0	0.6647273119766449	-0.2146294354224218	0.0	0.7158630350983586	-0.17667617231617952	0.0	0.8932792448919502	-0.16598507550221947	0.0	0.8289358789812663	-0.304735706708776	0.0	0.7306395104577919	-0.20664406941467758	0.0	0.66282841549502	-0.22764003333615293	0.0	0.6642763915917677	-0.23097463727366577	0.0	0.7352769141839931	-0.1739006379827664	0.0	1.000194523238667	-0.3093830722404242	0.0	1.0122651752406897	-0.4015953780261933	0.0	0.9745470982849073	-0.36331866436347476	0.0	1.007172869959821	-0.2848213802538452	0.0	0.9247304637339717	-0.22031411993452774	0.0	0.8287806221064128	-0.20985134074321138	0.0	1.005189228526938	-0.3004304453835495	0.0	0.9215071626193132	-0.23394118395548408	0.0	0.8275287815941974	-0.2220223090850121	0.0
70	2.3469785575048734	0.9134929459882053	-0.15179084769070317	0.0	0.912241912744032	-0.15610628433456974	0.0	0.834838482562135	-0.2943616323162257	0.0	0.7388652021828213	-0.1773273495414101	0.0	0.6722313637249296	-0.20873881665856822	0.0	0.6771824918674211	-0.1941981862111556	0.0	0.7314340620243498	-0.15958305226763458	0.0	0.9077118562375879	-0.16743884027743508	0.0	0.8348334519894325	-0.2965023426315246	0.0	0.7436149784419117	-0.19209003912574296	0.0	0.6722039076156189	-0.20782801281724267	0.0	0.6739116169399597	-0.21226783410109937	0.0	0.7495047781256106	-0.1571022121145725	0.0	1.002315841867082	-0.31206168579692734	0.0	1.0073195712635452	-0.40246296696535344	0.0	0.9716956906325924	-0.36504420542301963	0.0	1.0109536650702575	-0.28403594698276585	0.0	0.931666820574421	-0.21504656523029048	0.0	0.8381541952119771	-0.19903400865198367	0.0	1.0051872556274475	-0.30311044714143587	0.0	0.9281704848170949	-0.23278689421564408	0.0	0.8353961888558789	-0.2132304232825923	0.0
71	2.380506822612086	0.9277237101042003	-0.14929346449129977	0.0	0.926567469909865	-0.1515078146614588	0.0	0.8406494643680013	-0.28501748051847037	0.0	0.7518975543904038	-0.16043767340683016	0.0	0.6841048796641535	-0.18832966943920873	0.0	0.6900261136340917	-0.1742387585725453	0.0	0.746379941397636	-0.1420718295773947	0.0	0.9221546924744158	-0.16909113432438055	0.0	0.8412420651658515	-0.28720467105406433	0.0	0.7566893511474512	-0.17711401434314214	0.0	0.6827663091303257	-0.18822018742879215	0.0	0.6848950086508628	-0.19304204358611485	0.0	0.7637212362535285	-0.1401989344710596	0.0	1.0046762532020233	-0.31438085302393654	0.0	1.0019527228425875	-0.4025814602993761	0.0	0.9689268281887702	-0.3656517966166457	0.0	1.0148122899237726	-0.28311665126454205	0.0	0.9390119559442147	-0.2099916680995816	0.0	0.8482916932327225	-0.18939632429156314	0.0	1.004692353992744	-0.30562895571942617	0.0	0.9354932957307406	-0.2322780168031495	0.0	0.8447677820449061	-0.20623378998851258	0.0
72	2.414035087719298	0.9423519952141123	-0.14743943992286843	0.0	0.9412705751433389	-0.1479784030269989	0.0	0.8465846072391658	-0.275820058339355	0.0	0.7646660007885764	-0.14393001270672495	0.0	0.6965187228789902	-0.16869754883284552	0.0	0.7031620949931237	-0.15498726577031216	0.0	0.7605976217447614	-0.12504174314674463	0.0	0.9366677128737981	-0.17009749636515398	0.0	0.8480801164220072	-0.27689774778899867	0.0	0.7694422251581833	-0.16193968322231161	0.0	0.6945129242222143	-0.16944840342340417	0.0	0.6968807787136163	-0.17394509943411723	0.0	0.77760857520363	-0.12435958533839107	0.0	1.00703484078633	-0.3166088914801853	0.0	0.996461672630533	-0.4022757280248386	0.0	0.9664257702482442	-0.36513483700154264	0.0	1.0184038896452698	-0.28277240474558224	0.0	0.9467891526623698	-0.20540927155860422	0.0	0.8590107622176908	-0.1809854724590803	0.0	1.0038109348445017	-0.30842968003412014	0.0	0.9434211004227094	-0.232079227903692	0.0	0.8559587434534033	-0.2012497838748828	0.0
